<?xml version="1.0" standalone="no"?>
<!DOCTYPE svg PUBLIC "-//W3C//DTD SVG 20010904//EN"
        "http://www.w3.org/TR/2001/REC-SVG-20010904/DTD/svg10.dtd">
<svg version="1.0" xmlns="http://www.w3.org/2000/svg"
     width="1024.000000pt" height="1024.000000pt" viewBox="0 0 1024.000000 1024.000000"
     preserveAspectRatio="xMidYMid meet">
    <metadata>
        Created by potrace 1.14, written by Peter Selinger 2001-2017
    </metadata>
    <g transform="translate(0.000000,1024.000000) scale(0.100000,-0.100000)"
       fill="#A9A9A9" stroke="none">
        <path d="M5007 9153 c-51 -49 -124 -119 -163 -158 -40 -38 -220 -214 -400
-390 -181 -176 -397 -387 -480 -470 -84 -82 -214 -208 -290 -280 -75 -71 -233
-226 -352 -342 l-214 -213 -1114 0 -1114 0 -5 -22 c-7 -31 -2 -4195 6 -4202 3
-3 504 -6 1114 -6 l1108 -1 72 -69 c39 -39 74 -70 77 -70 4 0 35 -30 70 -68
34 -37 112 -114 173 -172 163 -156 283 -271 313 -303 15 -16 59 -59 97 -95 39
-37 127 -123 196 -192 70 -69 228 -224 353 -345 125 -121 319 -311 431 -422
113 -112 209 -203 215 -203 10 0 102 91 255 250 39 40 84 83 100 96 17 12 116
107 220 209 105 103 280 275 390 383 164 161 586 571 645 626 8 8 71 70 140
138 68 68 151 149 184 181 l60 57 1107 0 c669 0 1110 4 1114 9 3 5 5 951 5
2102 0 1524 -3 2096 -11 2106 -10 11 -203 13 -1115 13 l-1103 0 -85 88 c-48
48 -90 90 -94 94 -54 47 -131 120 -156 147 -17 18 -44 45 -59 60 -42 38 -158
154 -188 187 -14 16 -38 37 -52 47 -14 11 -111 103 -214 205 -104 103 -268
264 -366 357 -97 94 -176 176 -177 183 0 6 -6 12 -14 12 -8 0 -50 37 -93 81
-43 45 -89 91 -101 103 -13 11 -106 101 -205 198 -100 98 -184 178 -186 178
-2 0 -44 -39 -94 -87z m204 -113 c108 -105 531 -517 789 -770 81 -80 234 -228
339 -330 294 -284 488 -473 574 -558 l79 -77 -47 -3 -46 -3 -98 98 c-54 54
-223 220 -376 368 -153 149 -339 330 -412 403 -74 72 -138 132 -144 132 -5 0
-9 4 -9 10 0 5 -82 89 -182 187 -99 98 -256 251 -347 341 -91 89 -168 162
-172 162 -4 0 -14 11 -23 25 -9 14 -23 25 -31 25 -8 0 -107 -91 -221 -202
-478 -468 -676 -663 -849 -833 -227 -224 -307 -303 -320 -315 -5 -5 -91 -88
-190 -185 -98 -96 -182 -175 -186 -175 -4 0 -9 -9 -12 -20 -4 -17 -14 -20 -62
-20 l-56 0 49 48 c26 26 201 196 387 377 186 182 429 418 539 526 111 108 251
244 311 302 140 134 542 527 575 561 13 14 27 26 30 26 3 0 53 -45 111 -100z
m-2674 -1828 c8 -5 13 -47 15 -127 3 -112 4 -120 23 -120 19 0 20 7 21 116 1
64 4 121 8 128 5 8 224 11 817 11 l809 0 0 -390 0 -390 -32 0 c-18 -1 -182 -1
-365 -1 -280 0 -332 -2 -337 -14 -3 -8 2 -18 12 -22 9 -5 278 -8 597 -8 l580
0 3 23 c3 22 1 23 -45 22 -26 -1 -121 -1 -211 -1 l-162 1 2 388 3 387 804 3
c443 1 808 -1 813 -6 4 -4 8 -125 8 -270 2 -248 3 -262 20 -262 10 0 22 5 26
12 4 7 8 127 8 268 l1 255 809 3 c565 1 812 -1 816 -9 4 -5 7 -70 7 -144 0
-73 4 -138 7 -144 9 -15 -9 -14 -64 3 -47 14 -156 35 -300 58 -106 16 -429 16
-525 -1 -250 -44 -270 -49 -390 -98 -60 -24 -117 -49 -125 -54 -8 -5 -28 -16
-45 -25 -50 -28 -198 -128 -220 -149 -11 -11 -41 -38 -65 -60 -52 -47 -163
-171 -169 -188 -2 -7 -24 -41 -49 -76 -25 -36 -56 -90 -68 -120 -13 -32 -25
-49 -28 -41 -10 31 -15 229 -7 235 5 3 12 1 15 -4 4 -5 31 -9 61 -9 39 0 55 5
60 16 10 26 -11 35 -78 30 l-65 -4 -6 61 c-6 66 6 171 23 204 17 32 98 68 171
76 72 8 111 20 122 38 14 21 8 92 -8 116 -16 22 -20 23 -128 17 -61 -3 -256
-6 -433 -7 l-323 -1 -20 -25 c-11 -14 -20 -30 -20 -35 0 -5 -11 -33 -24 -61
-46 -98 -76 -168 -76 -173 0 -3 -19 -47 -41 -97 -23 -51 -45 -101 -49 -112 -4
-11 -15 -37 -24 -58 -9 -21 -16 -42 -16 -48 0 -6 -8 -23 -18 -37 -10 -15 -33
-65 -51 -112 -18 -47 -41 -103 -51 -125 -56 -125 -69 -155 -86 -200 -10 -27
-26 -63 -35 -80 -10 -16 -32 -68 -49 -115 -32 -87 -108 -250 -116 -250 -2 0
-4 34 -4 75 l0 75 30 0 c34 0 52 26 29 41 -17 11 -475 6 -506 -5 -16 -6 -23
-5 -23 4 0 7 -6 26 -14 43 -7 18 -19 48 -26 67 -7 19 -19 49 -26 65 -7 17 -32
77 -54 135 -23 58 -52 130 -65 160 -13 30 -40 100 -61 155 -20 55 -43 107 -51
116 -7 8 -13 27 -13 40 0 14 -4 29 -8 34 -5 6 -19 37 -32 70 -13 33 -34 84
-48 114 -13 29 -38 94 -57 145 -50 139 -72 184 -92 189 -10 3 -215 7 -456 9
-425 3 -439 2 -453 -16 -18 -25 -18 -96 -1 -120 10 -13 35 -20 98 -27 80 -8
148 -23 178 -38 56 -28 54 -199 -10 -786 -6 -55 -14 -145 -19 -199 -12 -147
-18 -169 -38 -159 -9 4 -186 9 -392 10 -206 1 -383 4 -392 7 -17 4 -18 30 -18
379 0 301 3 377 13 386 10 7 144 12 433 14 231 2 425 6 432 11 18 11 15 24 -7
31 -18 5 -20 18 -23 145 -3 147 -9 167 -48 155 -16 -5 -19 -10 -11 -18 7 -7
11 -61 11 -144 l0 -133 -427 0 c-236 0 -574 0 -753 -1 -179 -1 -346 -1 -372 0
l-48 1 0 390 0 390 788 0 c433 0 792 -4 799 -8z m6707 -8 c10 -25 7 -752 -3
-758 -5 -3 -279 -6 -610 -6 -409 -1 -602 -4 -607 -11 -17 -28 20 -34 195 -35
97 0 183 -4 189 -8 15 -9 17 -761 3 -771 -10 -5 -1612 -8 -1617 -2 -5 4 -6
769 -2 773 2 2 199 4 438 5 351 2 439 5 456 16 20 13 23 11 49 -44 34 -73 105
-249 105 -263 0 -14 44 -30 80 -30 42 0 108 29 112 48 8 41 -44 434 -68 516
-8 26 -14 69 -14 95 -1 64 -16 79 -103 101 -82 20 -141 37 -172 50 -11 4 -28
11 -37 14 -16 5 -18 21 -18 159 0 85 3 157 7 160 3 4 367 7 809 7 722 0 802
-2 808 -16z m-2157 -399 c67 -8 131 -19 142 -24 11 -6 31 -11 45 -11 15 0 34
-4 44 -9 9 -5 28 -14 42 -20 52 -23 156 -94 190 -129 62 -66 64 -69 46 -87
-10 -11 -13 -25 -9 -45 4 -20 1 -31 -8 -35 -20 -7 -1299 -11 -1299 -4 0 32
186 217 274 273 72 46 114 62 226 86 105 23 152 24 307 5z m567 -313 c34 -49
34 -62 -1 -53 -24 6 -28 13 -31 49 -2 23 -1 42 1 42 2 0 16 -17 31 -38z
m-2733 -64 c1 -2 5 -75 9 -163 8 -151 24 -419 34 -585 l5 -75 -200 3 c-176 2
-200 0 -206 -14 -3 -9 0 -20 8 -25 20 -12 376 -12 384 1 15 24 25 -7 26 -78 0
-42 4 -124 9 -182 6 -58 14 -188 19 -290 5 -102 15 -275 21 -385 15 -249 8
-360 -23 -387 -42 -35 -72 -45 -162 -52 -104 -8 -115 -16 -115 -87 0 -74 10
-78 195 -71 88 3 155 1 155 -4 0 -5 -5 -26 -11 -46 -9 -35 -13 -38 -47 -38
-20 0 -181 0 -357 1 -176 0 -331 0 -345 0 -276 -3 -875 0 -879 5 -3 3 -6 179
-7 390 0 300 3 382 12 372 7 -7 26 -49 44 -93 17 -44 49 -123 70 -175 21 -52
56 -140 78 -195 73 -182 93 -222 124 -239 57 -35 114 -1 151 89 14 33 54 128
90 210 58 136 105 246 127 300 5 11 12 30 15 43 4 12 11 22 16 22 5 0 9 8 9
19 0 10 7 24 15 31 8 7 15 20 15 29 0 10 9 35 20 57 l21 39 -6 -35 c-3 -19 -8
-47 -12 -62 l-5 -28 380 0 c209 0 387 3 396 6 22 8 20 34 -1 35 -10 0 -168 1
-352 0 -197 0 -342 4 -353 10 -10 5 -18 19 -18 31 0 12 -7 29 -16 39 -15 17
-15 21 4 57 11 22 32 70 47 108 31 80 46 116 86 200 16 34 29 65 29 69 0 8 19
53 55 130 41 87 75 167 75 177 0 6 23 57 50 115 28 58 50 109 50 113 0 7 23
61 75 174 7 17 26 60 40 96 15 36 42 101 62 145 43 97 48 110 64 158 11 30 25
47 30 35z m1363 -26 c3 -4 105 -9 228 -10 161 -2 224 -6 230 -15 10 -16 10
-738 0 -754 -6 -10 -90 -13 -343 -15 -326 -3 -334 -3 -334 -23 0 -20 7 -20
750 -22 413 -2 755 -3 761 -3 8 0 10 -108 7 -387 -2 -213 -5 -389 -7 -390 -1
-2 -298 -3 -660 -3 -584 -1 -658 -3 -663 -17 -3 -8 0 -18 7 -23 6 -4 116 -8
243 -9 128 -1 235 -5 239 -9 6 -6 17 -452 11 -452 -12 0 -157 75 -183 94 -102
76 -232 214 -274 291 -20 37 -35 61 -61 100 -25 36 -95 198 -95 218 0 8 -6 20
-14 26 -8 6 -16 26 -19 44 -3 18 -11 55 -17 82 -24 116 -50 337 -49 430 3 209
44 470 90 571 10 23 19 46 19 53 0 6 9 28 20 48 11 21 20 43 20 50 0 7 9 29
20 48 46 81 61 97 74 77z m-4584 -17 c6 -4 10 -142 10 -390 l0 -383 -25 -6
c-14 -4 -185 -6 -380 -6 l-355 1 0 397 0 397 370 -2 c203 -1 374 -4 380 -8z
m7546 -9 c2 -12 3 -187 2 -391 l-3 -370 -379 -3 c-247 -1 -383 1 -390 8 -10
10 -18 701 -8 747 l4 23 332 2 c182 2 355 3 384 4 45 0 53 -2 58 -20z m-6386
-194 c15 -43 38 -103 52 -133 29 -63 143 -344 165 -409 16 -45 36 -92 72 -172
11 -24 23 -54 26 -68 8 -28 20 -56 64 -153 17 -37 31 -71 31 -75 0 -9 39 -110
64 -167 29 -64 86 -213 86 -223 0 -7 -110 -10 -337 -11 -186 0 -344 0 -350 0
-15 -1 -17 -27 -3 -36 5 -3 153 -6 329 -5 284 0 319 -1 325 -16 9 -24 7 -737
-3 -753 -12 -19 -1610 -18 -1623 1 -9 15 -9 689 1 733 l6 30 363 5 362 5 0
-46 c0 -85 -49 -309 -79 -359 -43 -72 -136 -130 -209 -130 -15 0 -38 -7 -50
-16 -18 -13 -22 -25 -22 -73 0 -76 10 -84 92 -75 67 7 622 8 698 0 61 -5 80
12 80 73 0 63 -21 91 -67 91 -61 0 -150 39 -186 81 -48 56 -61 127 -53 296 21
436 46 815 56 848 8 26 10 61 12 163 0 26 17 262 38 535 9 123 15 155 28 143
3 -3 17 -41 32 -84z m2577 -464 c-3 -7 -5 -2 -5 12 0 14 2 19 5 13 2 -7 2 -19
0 -25z m-2872 -198 c-6 -71 -24 -261 -40 -424 -8 -82 -15 -179 -15 -217 0 -67
-15 -123 -31 -113 -4 2 -350 5 -769 4 l-760 0 0 398 0 397 809 0 809 0 -3 -45z
m1637 40 c26 0 27 0 31 -87 2 -49 8 -100 12 -116 6 -21 0 -43 -25 -95 -18 -37
-42 -94 -55 -127 -74 -195 -100 -216 -134 -110 -7 22 -16 49 -20 60 -5 11 -21
52 -36 90 -15 39 -37 93 -50 120 -13 28 -27 64 -31 80 -4 17 -22 62 -41 101
-18 39 -33 75 -33 80 0 5 75 8 178 7 97 -2 189 -3 204 -3z m5046 -390 l2 -390
-687 -2 c-379 -2 -744 -1 -813 2 l-125 5 0 385 0 385 390 5 c215 3 579 4 810
2 l420 -2 3 -390z m-3811 63 c-3 -10 -5 -4 -5 12 0 17 2 24 5 18 2 -7 2 -21 0
-30z m2971 -508 c9 -3 12 -88 12 -377 0 -205 -4 -379 -9 -386 -7 -12 -148 -14
-805 -13 l-798 1 -18 22 c-13 17 -15 25 -7 30 7 4 66 5 132 3 66 -2 140 0 165
6 25 5 74 14 110 19 149 21 214 42 355 110 148 72 256 154 413 313 92 94 128
151 114 181 -11 25 -85 66 -118 66 -10 0 -61 -41 -112 -89 -86 -83 -236 -192
-341 -248 -32 -18 -243 -88 -311 -104 -77 -18 -367 -18 -400 1 -15 8 -20 15
-12 18 9 3 12 58 12 228 l0 224 428 2 c511 4 1172 0 1190 -7z m-6698 -375 c3
-206 1 -383 -3 -392 -7 -17 -35 -18 -382 -18 l-375 0 0 395 0 395 378 -2 377
-3 5 -375z m7538 15 c1 -198 0 -374 -3 -390 l-5 -31 -378 4 c-337 3 -378 6
-390 20 -11 14 -13 86 -9 378 2 199 7 366 11 373 5 8 108 11 389 9 l382 -3 3
-360z m-3449 32 c45 -46 111 -104 148 -128 38 -24 70 -47 73 -51 5 -6 137 -69
215 -103 91 -39 233 -68 414 -85 51 -5 98 -13 104 -19 6 -6 3 -19 -10 -36
l-19 -27 -799 1 c-637 0 -800 3 -806 13 -3 7 -9 27 -12 45 l-6 31 57 5 c70 6
695 -1 774 -8 52 -5 59 -3 72 17 17 27 19 73 5 109 -9 22 -19 28 -56 33 -25 3
-64 6 -87 6 -52 0 -116 29 -144 64 -11 15 -26 53 -33 84 -7 31 -16 61 -21 67
-4 5 -8 45 -8 90 l0 80 30 -51 c16 -29 65 -90 109 -137z m-3257 -505 c4 -4 8
-174 8 -377 l1 -370 -801 -3 -800 -2 0 379 0 380 28 3 c56 6 1557 -4 1564 -10z
m1685 5 c1 -2 3 -172 5 -380 l3 -377 -824 0 c-746 0 -823 1 -817 16 3 9 6 179
6 380 l0 364 338 2 c353 3 1284 -1 1289 -5z m1673 -5 c0 -4 1 -175 3 -380 l2
-372 -818 0 -817 0 2 378 3 377 430 5 c535 6 1195 2 1195 -8z m1676 4 c7 -3
10 -126 11 -380 l1 -376 -817 0 c-450 0 -820 2 -822 4 -2 2 -2 172 1 378 l5
373 375 5 c387 5 1227 2 1246 -4z m1674 -376 l0 -380 -815 0 -815 0 0 380 0
380 383 2 c210 2 577 2 815 0 l432 -2 0 -380z m-5827 -567 c59 -58 107 -107
107 -109 0 -1 28 -29 62 -61 34 -32 87 -83 118 -113 245 -240 350 -345 350
-352 0 -4 4 -8 10 -8 5 0 115 -105 244 -232 284 -282 541 -532 587 -573 19
-17 67 -65 108 -108 40 -42 81 -77 90 -77 10 0 54 36 99 80 44 44 86 80 91 80
6 0 11 6 11 14 0 8 15 26 33 41 17 14 223 214 456 443 396 390 755 742 774
759 10 9 92 90 228 226 l99 97 51 0 51 0 -97 -92 c-54 -51 -159 -154 -235
-228 -317 -312 -349 -342 -361 -334 -7 4 -10 3 -5 -4 5 -9 -68 -90 -135 -148
-13 -11 -36 -34 -50 -50 -14 -16 -104 -105 -200 -198 -96 -92 -231 -224 -301
-292 -69 -68 -131 -124 -137 -124 -6 0 -11 -5 -11 -11 0 -7 -35 -46 -79 -88
-43 -42 -121 -118 -174 -169 -53 -50 -99 -92 -103 -92 -8 0 -82 62 -104 88 -8
9 -53 53 -99 97 -46 44 -163 159 -261 255 -97 96 -271 266 -386 378 -294 285
-678 658 -873 850 l-166 162 50 0 50 0 108 -107z"/>
        <path d="M2803 5603 c-26 -5 -31 -28 -7 -37 28 -11 272 -7 279 4 4 6 1 17 -5
25 -10 12 -38 15 -129 14 -64 -1 -126 -4 -138 -6z"/>
        <path d="M2036 3770 c-40 -12 -63 -36 -82 -85 -12 -33 -13 -48 -5 -63 6 -11
11 -28 11 -38 0 -20 46 -84 61 -84 18 0 80 -53 94 -80 11 -20 11 -30 2 -39
-28 -28 -76 -4 -91 47 -14 42 -76 53 -90 15 -7 -18 3 -105 14 -123 20 -32 164
-38 220 -10 44 22 90 91 90 133 0 56 -62 131 -142 173 -32 17 -50 46 -42 68
11 29 42 17 71 -26 30 -45 48 -54 72 -39 17 11 23 97 10 123 -17 32 -125 48
-193 28z"/>
        <path d="M2712 3765 c-29 -21 -28 -41 3 -61 24 -16 25 -19 25 -135 0 -96 4
-129 21 -175 19 -51 26 -58 73 -80 88 -41 200 -29 250 27 41 45 56 109 56 235
0 109 1 112 26 128 17 12 24 25 22 39 -3 21 -8 22 -98 22 l-95 0 0 -30 c0 -22
5 -31 20 -34 11 -2 23 -8 26 -13 10 -15 8 -240 -2 -267 -20 -52 -89 -69 -125
-30 -16 18 -19 40 -22 165 -3 137 -3 144 16 144 12 0 22 9 25 21 11 43 0 49
-88 49 -46 0 -89 2 -97 5 -7 3 -23 -2 -36 -10z"/>
        <path d="M3690 3770 c-57 -4 -65 -8 -68 -27 -2 -14 5 -27 22 -39 26 -16 26
-17 26 -164 0 -122 -3 -151 -16 -164 -8 -9 -20 -16 -25 -16 -14 0 -11 -37 6
-53 20 -20 200 -17 221 5 19 19 9 45 -22 52 -22 6 -24 12 -24 61 0 30 4 55 8
55 5 0 16 -15 25 -34 22 -48 85 -129 111 -143 31 -18 102 -16 120 3 25 24 19
48 -14 61 -16 6 -33 20 -37 30 -4 10 -20 39 -36 65 l-29 48 21 33 c46 74 33
175 -25 209 -35 20 -144 28 -264 18z m168 -82 c13 -13 16 -75 6 -102 -3 -9
-16 -16 -29 -16 -27 0 -36 30 -28 91 6 41 26 52 51 27z"/>
        <path d="M4537 3771 c-20 -6 -36 -32 -30 -48 3 -8 16 -19 29 -24 24 -8 24 -10
24 -163 l0 -155 -30 -16 c-33 -17 -38 -36 -14 -56 19 -15 199 -21 227 -7 24
12 21 45 -5 59 -33 17 -38 28 -38 80 0 60 24 74 56 33 18 -21 27 -25 48 -20
25 6 26 9 26 74 0 96 -27 117 -82 65 -37 -35 -50 -22 -46 48 3 53 4 54 35 57
27 3 34 -2 54 -37 44 -79 102 -40 83 57 l-9 47 -158 5 c-86 3 -163 3 -170 1z"/>
        <path d="M5520 3752 c-19 -9 -36 -26 -38 -37 -4 -23 -36 -111 -63 -170 -9 -22
-29 -67 -42 -100 -17 -41 -34 -65 -54 -76 -65 -36 -25 -77 73 -75 84 2 123 38
74 68 -43 27 -10 88 48 88 47 0 60 -9 71 -47 8 -27 6 -32 -15 -42 -28 -12 -29
-19 -9 -45 13 -17 28 -20 111 -20 85 -1 98 1 110 19 19 27 18 32 -14 49 -20
10 -34 30 -46 63 -10 26 -24 66 -33 88 -8 22 -19 49 -23 60 -4 11 -13 40 -20
65 -30 109 -41 130 -69 130 -14 0 -42 -8 -61 -18z m20 -187 c0 -16 -6 -25 -15
-25 -18 0 -18 5 -5 31 14 26 20 24 20 -6z"/>
        <path d="M6395 3769 c-49 -12 -130 -88 -146 -138 -7 -20 -12 -70 -11 -113 1
-70 4 -82 35 -131 27 -41 45 -58 78 -71 99 -40 192 -29 255 28 30 27 35 38 32
67 -3 29 -6 34 -27 31 -13 -1 -39 -16 -58 -32 -25 -22 -44 -30 -73 -30 -45 0
-60 12 -90 75 -24 51 -24 123 1 185 19 47 36 59 85 60 44 0 60 -12 88 -68 14
-27 22 -33 44 -30 25 3 27 6 30 58 3 75 -17 101 -89 111 -69 10 -105 9 -154
-2z"/>
        <path d="M7113 3759 c-16 -16 -3 -49 23 -60 24 -8 24 -10 24 -158 0 -123 -3
-152 -16 -165 -8 -9 -20 -16 -25 -16 -6 0 -9 -12 -7 -27 4 -37 27 -41 204 -38
l149 3 18 34 c11 21 16 50 15 78 -3 42 -5 45 -34 48 -28 3 -34 -1 -50 -35 -21
-43 -64 -64 -92 -47 -12 8 -18 28 -20 73 -3 54 -1 61 16 61 10 0 27 -9 36 -19
48 -53 81 -22 74 70 -4 52 -2 59 14 59 10 0 23 11 28 24 10 27 3 94 -13 114
-12 16 -328 17 -344 1z m271 -86 c13 -26 12 -29 -16 -55 -17 -15 -39 -28 -49
-28 -16 0 -19 8 -19 55 l0 55 35 0 c27 0 37 -6 49 -27z"/>
        <path d="M8065 3773 c-59 -9 -105 -74 -105 -147 0 -49 10 -61 135 -172 37 -33
46 -46 40 -63 -13 -41 -68 -24 -95 29 -20 40 -40 53 -65 44 -20 -8 -21 -136
-1 -153 7 -6 47 -14 88 -17 62 -6 82 -3 120 14 55 24 76 52 84 114 9 68 -21
125 -85 161 -79 44 -116 106 -68 115 23 5 47 -15 47 -38 0 -38 61 -65 88 -38
16 16 15 71 -2 113 -11 26 -21 35 -39 35 -13 0 -44 2 -68 4 -24 2 -57 2 -74
-1z"/>
    </g>
</svg>
